<svg fill="none" height="48" viewBox="0 0 48 48" width="48" xmlns="http://www.w3.org/2000/svg"><g fill="#000"><path d="m29.4574 5.58955c1.8123.26583 3.5283 1.11347 4.9773 2.4447.1868-1.71148-.4743-3.3248-1.7953-4.0875-.7175-.41421-.9633-1.3316-.5491-2.04904s1.3316-.963249 2.0491-.54904c3.0656 1.76997 3.8334 5.33177 2.9994 8.37727 4.631.98556 8.3612 5.09606 8.3612 10.27436 0 .8285-.6716 1.5-1.5 1.5-.8285 0-1.5-.6715-1.5-1.5 0-3.117-1.9123-5.7125-4.5101-6.8627 1.0358 2.9807.5149 6.4407-1.7494 8.8826-.5633.6075-1.5123.6433-2.1198.0801-.6075-.5633-.6433-1.5124-.08-2.1199 1.7756-1.9149 1.9224-4.9358.4855-7.155-1.2472.5475-2.5152 1.8-3.6138 3.86-1.0865 2.0371-1.8973 4.6897-2.2635 7.7018-1.505-.2549-3.0623-.3872-4.6489-.3872-2.141 0-4.2283.2409-6.2063.6988 1.3239-7.3489 6.9881-13.1897 14.2435-14.77306-.9504-.76664-1.9912-1.21775-3.0152-1.36795-1.6696-.24489-3.4456.28425-4.9495 1.82241-.5792.5923-1.5289.603-2.1212.0238-.5923-.57916-.603-1.52884-.0239-2.12118 2.1399-2.18854 4.8616-3.08466 7.53-2.69327z"/><path d="m36.8859 30.2893c-3.3581-2.3705-7.9187-3.7893-12.8858-3.7893s-9.5277 1.4188-12.8858 3.7893c-3.31116 2.3372-5.55595 5.6914-5.61308 9.5594.13335-.0742.26446-.1549.39292-.2421 2.46138-1.6695 5.75056-1.6695 8.21196 0 .8824.5986 1.8894.8933 2.894.8933s2.0116-.2947 2.894-.8933c2.4614-1.6695 5.7506-1.6695 8.212 0 .8824.5986 1.8894.8933 2.894.8933s2.0116-.2947 2.894-.8933c2.4614-1.6695 5.7506-1.6695 8.212 0 .1284.0872.2595.1679.3929.2421-.0571-3.868-2.3019-7.2222-5.6131-9.5594z"/><path clip-rule="evenodd" d="m40.4219 42.0894c-1.4446-.9799-3.3992-.9799-4.8438 0-1.3879.9413-2.9834 1.4105-4.5781 1.4105s-3.1902-.4692-4.5781-1.4105c-1.4446-.9799-3.3992-.9799-4.8438 0-1.3879.9413-2.9834 1.4105-4.5781 1.4105s-3.1902-.4692-4.5781-1.4105c-1.4446-.9799-3.39924-.9799-4.84384 0-1.38784.9413-2.98336 1.4105-4.57806 1.4105-.82843 0-1.5.6716-1.5 1.5s.67157 1.5 1.5 1.5h42c.8284 0 1.5-.6716 1.5-1.5s-.6716-1.5-1.5-1.5c-1.5947 0-3.1902-.4692-4.5781-1.4105z" fill-rule="evenodd"/></g></svg>